# xmcd
#
# Track frame offsets:
#	150
#	22401
#	39271
#	73661
#	119736
#	165241
#	228762
#	269292
#	318754
#
# Disc length: 4529
#
# Revision: 1
# Processed by: cddbd v1.5.1PL0 Copyright (c) Steve Scherf et al.
# Submitted via: CDex 1.50Beta6
# Normalized: r0:DSETVAR1
#
DISCID=7211af09
DTITLE=Various Artist - Star Gazer
DYEAR=1900
DGENRE=Jazz
TTITLE0=Dexter ansel - Theme From The Planets
TTITLE1=Azymuth - A Presa
TTITLE2=Donald Byrd - Perpetual Love
TTITLE3=Herbie Hancock - Hidden Shadows
TTITLE4=Woody Shaw - Love For The One You Can't Have
TTITLE5=Miles Davis - Konda
TTITLE6=Eddie Harris - Free Speech
TTITLE7=Sun Ra - Tehre Are Other Worlds (They Have Not Told You Of)
TTITLE8=David Axelrod - A Divine Image
EXTD=
EXTT0=
EXTT1=
EXTT2=
EXTT3=
EXTT4=
EXTT5=
EXTT6=
EXTT7=
EXTT8=
PLAYORDER=
